<svg xmlns="http://www.w3.org/2000/svg" viewBox="0 0 350.05 300.22"><defs><style>.cls-1{fill:#fff;}</style></defs><title>Asset 14</title><g id="Layer_2" data-name="Layer 2"><g id="Layer_1-2" data-name="Layer 1"><path class="cls-1" d="M313.71,134.28H61a10,10,0,0,1,0-20H313.71a16.7,16.7,0,0,0,16.34-16.61,16.15,16.15,0,1,0-32.3-.12,10,10,0,1,1-20,0,36.15,36.15,0,1,1,36,36.73Z"/><path class="cls-1" d="M214.49,91.28H10a10,10,0,0,1,0-20H214.49a25.65,25.65,0,1,0-24.86-25.7,10,10,0,0,1-20,0C169.63,20.45,189.89,0,214.79,0a45.64,45.64,0,0,1-.3,91.28Z"/><path class="cls-1" d="M299.36,246.86a45.35,45.35,0,0,1-45.27-45.35,10,10,0,0,1,20,0,25.32,25.32,0,1,0,25.07-25.23H30a10,10,0,0,1,0-20H299.16a45.29,45.29,0,1,1,.2,90.58Z"/><path class="cls-1" d="M133,300.22a10,10,0,0,1-7.07-17.07l25-25a10,10,0,0,1,14.14,14.15l-25,25A10,10,0,0,1,133,300.22Z"/><path class="cls-1" d="M46,243.22a10,10,0,0,1-7.07-17.07l15.79-15.78a10,10,0,0,1,14.14,14.15L53,240.3A10,10,0,0,1,46,243.22Z"/><path class="cls-1" d="M185,243.22a10,10,0,0,1-7.07-17.07l15.79-15.78a10,10,0,0,1,14.14,14.15L192,240.3A10,10,0,0,1,185,243.22Z"/><path class="cls-1" d="M228,281.39a10,10,0,0,1-7.06-17.08l19-18.94A10,10,0,0,1,254,259.53l-19,18.94A10,10,0,0,1,228,281.39Z"/><path class="cls-1" d="M79,279.39a10,10,0,0,1-7.07-17.08l52-51.94A10,10,0,0,1,138,224.52L86,276.46A10,10,0,0,1,79,279.39Z"/></g></g></svg>