<svg xmlns="http://www.w3.org/2000/svg" viewBox="0 0 436.01 415.17"><defs><style>.cls-1{fill:#fff;}</style></defs><title>Asset 15</title><g id="Layer_2" data-name="Layer 2"><g id="Layer_1-2" data-name="Layer 1"><path class="cls-1" d="M399.61,249.23H81.9a10,10,0,0,1,0-20H399.61A16.73,16.73,0,0,0,416,212.62a16.06,16.06,0,1,0-32.11-.12,10,10,0,0,1-20,0c0-20.12,16.14-36.5,36-36.5S436,192.43,436,212.62A36.55,36.55,0,0,1,399.61,249.23Z"/><path class="cls-1" d="M325.5,361.81a44.59,44.59,0,0,1-32-13.31,45.3,45.3,0,0,1-13-32,10,10,0,0,1,20,0,25.14,25.14,0,1,0,50.27.06,25.53,25.53,0,0,0-25.69-25.29H56.9a10,10,0,1,1,0-20H325.06c25.19,0,45.69,20.32,45.69,45.29A45.32,45.32,0,0,1,325.5,361.81Z"/><path class="cls-1" d="M216.06,212.23H107.9a10,10,0,0,1,0-20H216.06a25.45,25.45,0,1,0,.44-50.89c-14,0-25,11.18-25,25.45a10,10,0,0,1-20,0c0-25.06,20.2-45.45,45-45.45a45.45,45.45,0,1,1-.44,90.89Z"/><path class="cls-1" d="M158.86,415.17a10,10,0,0,1-7.07-17.07l25-25A10,10,0,1,1,191,387.23l-25,25A10,10,0,0,1,158.86,415.17Z"/><path class="cls-1" d="M71.86,358.17a10,10,0,0,1-7.07-17.07l15.79-15.78a10,10,0,1,1,14.13,14.15L78.92,355.25A10,10,0,0,1,71.86,358.17Z"/><path class="cls-1" d="M210.86,358.17a10,10,0,0,1-7.07-17.07l15.79-15.78a10,10,0,1,1,14.13,14.15l-15.79,15.78A10,10,0,0,1,210.86,358.17Z"/><path class="cls-1" d="M253.86,396.33a10,10,0,0,1-7.07-17.08l19-18.94a10,10,0,0,1,14.12,14.17l-19,18.94A10,10,0,0,1,253.86,396.33Z"/><path class="cls-1" d="M104.86,394.33a10,10,0,0,1-7.07-17.07l52-51.94a10,10,0,0,1,14.14,14.15l-52,51.94A10,10,0,0,1,104.86,394.33Z"/><path class="cls-1" d="M286.67,213.23H276.9a10,10,0,0,1,0-20h9.6c25.17-.91,44.86-20.81,44.86-45.37a45.33,45.33,0,0,0-45.24-45.31c-1.28,0-2.29,0-3.18.09a10,10,0,0,1-10.67-9.34A78.4,78.4,0,0,0,127,57.79a10,10,0,0,1-15.64,1.87A24.61,24.61,0,0,0,71.87,88a10,10,0,0,1-8.54,14.49A45.31,45.31,0,0,0,65,193.1h8.63a10,10,0,1,1,0,20H65A65.34,65.34,0,0,1,49.84,84.28a44.7,44.7,0,0,1,44-51.88,44.31,44.31,0,0,1,22.22,5.91A97.62,97.62,0,0,1,194.05,0a98.6,98.6,0,0,1,97.14,82.74,65.38,65.38,0,0,1,60.17,65.12c0,35.46-28.27,64.17-64.36,65.37Z"/></g></g></svg>